<svg width="23" height="22" viewBox="0 0 23 22" fill="none" xmlns="http://www.w3.org/2000/svg">
<path d="M4.90125 7.73237C5.17855 7.73237 5.40334 7.95716 5.40334 8.23446V21.4898C5.40313 21.7669 5.17842 21.9919 4.90125 21.9919H0.502089C0.224924 21.9919 0.00021182 21.7669 0 21.4898V8.23446C0 7.95716 0.224793 7.73237 0.502089 7.73237H4.90125ZM15.8992 6.62719C17.7829 6.62719 19.5896 7.37896 20.921 8.71595C22.2523 10.053 22.9998 11.8665 23 13.7565V21.4888C23 21.7661 22.7752 21.9909 22.4979 21.9909H18.0987C17.8216 21.9907 17.5967 21.766 17.5967 21.4888V13.7565C17.5965 13.3033 17.4169 12.8691 17.0985 12.5493C16.78 12.2296 16.3485 12.0501 15.8992 12.0501C15.4498 12.0502 15.0183 12.2295 14.6998 12.5493C14.3815 12.8691 14.2019 13.3033 14.2017 13.7565V21.4888C14.2017 21.7661 13.9769 21.9909 13.6996 21.9909H9.30042C9.02321 21.9908 8.79833 21.7661 8.79833 21.4888V13.7565C8.79854 11.8665 9.54603 10.053 10.8773 8.71595C12.2087 7.37883 14.0154 6.62727 15.8992 6.62719ZM1.00418 20.9877H4.39916V8.73655H1.00418V20.9877ZM15.8992 7.63136C14.2831 7.63145 12.7327 8.27659 11.5892 9.42496C10.4458 10.5734 9.80271 12.1315 9.80251 13.7565V20.9867H13.1975V13.7565C13.1977 13.0384 13.4817 12.3487 13.9879 11.8403C14.4943 11.3317 15.1821 11.046 15.8992 11.046C16.6162 11.046 17.304 11.3318 17.8104 11.8403C18.3167 12.3487 18.6006 13.0384 18.6008 13.7565V20.9867H21.9958V13.7565C21.9956 12.1316 21.3533 10.5733 20.2101 9.42496C19.0666 8.27663 17.5153 7.63136 15.8992 7.63136ZM2.70167 0C4.19584 0 5.40334 1.21613 5.40334 2.71148C5.40324 4.20673 4.19578 5.42296 2.70167 5.42296C1.20759 5.42293 0.000105684 4.20672 0 2.71148C0 1.21615 1.20752 2.54579e-05 2.70167 0ZM2.70167 1.00418C1.76622 1.0042 1.00418 1.76663 1.00418 2.71148C1.00428 3.65623 1.76628 4.41875 2.70167 4.41878C3.63708 4.41878 4.39906 3.65625 4.39916 2.71148C4.39916 1.76661 3.63715 1.00418 2.70167 1.00418Z" fill="black"/>
</svg>
