<svg width="22" height="22" viewBox="0 0 22 22" fill="none" xmlns="http://www.w3.org/2000/svg">
<path d="M16.2492 0C19.4252 0 22 2.57482 22 5.75079V16.2492C22 19.4252 19.4252 22 16.2492 22H5.75079C2.57482 22 0 19.4252 0 16.2492V5.75079C0 2.57482 2.57482 0 5.75079 0H16.2492ZM5.75079 1.00218C3.12831 1.00218 1.00218 3.12831 1.00218 5.75079V16.2492C1.00218 18.8717 3.12831 20.9978 5.75079 20.9978H16.2492C18.8717 20.9978 20.9978 18.8717 20.9978 16.2492V5.75079C20.9978 3.12831 18.8717 1.00218 16.2492 1.00218H5.75079ZM8.88064 6.78233C9.75826 6.32695 10.7575 6.1597 11.7355 6.30473C12.7329 6.45273 13.6561 6.91784 14.3691 7.63086C15.0823 8.344 15.5473 9.26788 15.6953 10.2655C15.8402 11.2434 15.673 12.2419 15.2177 13.1194C14.7623 13.997 14.0417 14.7086 13.1585 15.1531C12.2754 15.5975 11.2748 15.7525 10.2988 15.5954C9.32261 15.4384 8.421 14.9772 7.72187 14.2781C7.02278 13.579 6.56164 12.6774 6.40456 11.7012C6.24752 10.7252 6.4025 9.72458 6.84692 8.8415C7.29144 7.95834 8.00304 7.23771 8.88064 6.78233ZM11.5877 7.29614C10.8184 7.18214 10.0329 7.31381 9.34259 7.67196C8.65207 8.03025 8.0912 8.59682 7.74145 9.29169C7.39183 9.9864 7.27054 10.7739 7.39401 11.5417C7.51761 12.3097 7.8804 13.0195 8.43045 13.5696C8.98052 14.1196 9.69026 14.4824 10.4583 14.606C11.2262 14.7295 12.0136 14.6082 12.7083 14.2586C13.403 13.9089 13.9697 13.3487 14.328 12.6584C14.6863 11.968 14.8179 11.1817 14.7039 10.4123C14.5875 9.62737 14.2217 8.90053 13.6606 8.33943C13.0995 7.77836 12.3726 7.41254 11.5877 7.29614ZM16.7846 4.72414C17.0611 4.72424 17.2854 4.94874 17.2856 5.22523C17.2856 5.50191 17.0612 5.72622 16.7846 5.72632H16.7748C16.498 5.72632 16.2737 5.50198 16.2737 5.22523C16.2739 4.94868 16.4982 4.72414 16.7748 4.72414H16.7846Z" fill="black"/>
</svg>
